#!OML:ASF F:\VICON\USERDATA\Patient Classification 1\PLAYGROUND\JustinFriday\JustinFriday.ASF
:FULLY-SPECIFIED
:DEGREES
2537
root -24.4715 21.0309 -7.97311 211.222 77.9547 -165.855
lowerback 29.2289 -0.405919 1.10467
upperback 5.68277 0.895189 3.83632
thorax -9.78874 0.695412 3.33217
lowerneck -11.7182 -7.2733 -7.97871
upperneck -20.2309 -6.66437 11.8214
head -3.41185 -2.71424 4.92538
rclavicle 3.53837e-014 3.69739e-014
rhumerus 16.9666 20.6942 -70.0575
rradius 63.3304
rwrist 13.4103
rhand -22.0514 -372.151
rfingers 7.12502
rthumb 4.35917 -402.086
lclavicle 3.53837e-014 3.69739e-014
lhumerus 49.4572 -16.6886 59.7694
lradius 51.385
lwrist -20.5109
lhand -18.2062 -18.4191
lfingers 7.12502
lthumb 8.07135 11.4068
rfemur -48.7953 -2.32545 33.6201
rtibia 56.6326
rfoot -31.1925 -5.33265
rtoes 9.34588
lfemur -37.1143 15.5774 -13.9966
ltibia 60.8474
lfoot -1.92512 -4.07443
ltoes 4.93397
2538
root -24.4396 21.1779 -7.941 210.331 77.8452 -166.92
lowerback 29.1982 -0.267784 1.08294
upperback 5.60337 1.04557 3.7394
thorax -9.87071 0.761422 3.1803
lowerneck -11.602 -7.32062 -7.48179
upperneck -20.5198 -6.85723 10.9263
head -3.57179 -2.80597 4.57015
rclavicle 5.92378e-014 8.42847e-014
rhumerus 16.6202 20.1837 -70.3569
rradius 64.1886
rwrist 14.6254
rhand -21.397 -371.474
rfingers 7.12502
rthumb 4.99106 -401.395
lclavicle 5.92378e-014 8.42847e-014
lhumerus 49.6471 -17.3059 59.6188
lradius 51.2093
lwrist -20.3412
lhand -18.4451 -18.3894
lfingers 7.12502
lthumb 7.84074 11.4452
rfemur -48.0718 -1.90217 32.82
rtibia 55.3426
rfoot -31.4295 -0.179553
rtoes 21.3309
lfemur -38.6234 15.2507 -14.1692
ltibia 63.5613
lfoot -3.58028 -3.69598
ltoes -3.56035
2539
root -24.4194 21.2588 -7.92193 209.635 77.9735 -167.602
lowerback 29.3827 0.00141425 1.03311
upperback 5.55944 1.36524 3.63818
thorax -10.0273 0.908397 2.97795
lowerneck -10.8091 -7.90531 -9.05632
upperneck -20.9884 -7.42346 12.2139
head -3.64098 -3.04726 5.25524
rclavicle 2.42517e-014 -3.4191e-014
rhumerus 16.3165 19.4532 -70.4594
rradius 65.0583
rwrist 15.8183
rhand -20.0495 -369.448
rfingers 7.12502
rthumb 6.292 -399.334
lclavicle 2.42517e-014 -3.4191e-014
lhumerus 49.8508 -18.298 59.7968
lradius 50.9306
lwrist -20.9966
lhand -19.4249 -17.6626
lfingers 7.12502
lthumb 6.89501 12.2051
rfemur -47.0775 -2.58931 33.0353
rtibia 53.4788
rfoot -30.7903 -1.32061
rtoes 17.5491
lfemur -40.3739 15.2948 -13.9868
ltibia 66.6615
lfoot -4.8183 -3.67688
ltoes -0.264462
2540
root -24.3885 21.4021 -7.91026 209.397 78.2555 -167.567
lowerback 29.5964 0.139177 1.37921
upperback 5.7388 1.60809 3.23544
thorax -9.91845 1.00769 2.22651
lowerneck -11.1249 -7.90704 -8.28969
upperneck -20.9203 -7.6097 10.9185
head -3.66946 -3.12242 4.70558
rclavicle -2.3059e-014 1.63003e-014
rhumerus 16.2382 18.3624 -70.9582
rradius 65.9821
rwrist 16.6488
rhand -18.6264 -366.842
rfingers 7.12502
rthumb 7.6658 -396.683
lclavicle -2.3059e-014 1.63003e-014
lhumerus 50.1293 -19.3423 59.9856
lradius 50.6095
lwrist -21.8886
lhand -20.1703 -17.5495
lfingers 7.12502
lthumb 6.17543 12.3405
rfemur -45.7094 -2.49145 32.8722
rtibia 51.8846
rfoot -30.4325 -1.55612
rtoes 17.2189
lfemur -41.7914 15.092 -13.3424
ltibia 69.7294
lfoot -6.13215 -3.96953
ltoes 16.6584
2541
root -24.3568 21.4401 -7.92464 210.275 78.3785 -166.151
lowerback 30.3627 0.172673 0.851291
upperback 5.75964 1.56108 3.47809
thorax -10.2904 1.01229 2.82767
lowerneck -11.1383 -7.93287 -9.03645
upperneck -20.671 -7.53074 11.6497
head -3.5218 -3.07037 5.04957
rclavicle 4.05521e-014 3.73715e-014
rhumerus 16.3138 19.4724 -70.5425
rradius 67.318
rwrist 16.0042
rhand -18.1705 -365.061
rfingers 7.12502
rthumb 8.10578 -394.886
lclavicle 4.05521e-014 3.73715e-014
lhumerus 49.3336 -19.0267 60.498
lradius 50.2638
lwrist -22.2221
lhand -20.5485 -17.7514
lfingers 7.12502
lthumb 5.81026 12.149
rfemur -44.109 -2.76367 33.1487
rtibia 49.8627
rfoot -29.6157 -1.87593
rtoes 14.2702
lfemur -42.7276 16.6564 -13.7664
ltibia 72.7727
lfoot -8.79251 -3.4299
ltoes -0.549783
2542
root -24.3552 21.5561 -7.87842 211.913 78.0507 -165.113
lowerback 29.8459 0.0829076 1.34354
upperback 5.68803 1.51073 3.06685
thorax -10.0924 0.958784 2.09216
lowerneck -11.3243 -8.14561 -8.4246
upperneck -20.5731 -7.81654 11.9679
head -3.44004 -3.26185 5.02819
rclavicle 3.61788e-014 -2.90226e-014
rhumerus 16.1483 19.7372 -70.4294
rradius 69.2318
rwrist 14.8314
rhand -18.5148 -364.443
rfingers 7.12502
rthumb 7.77351 -394.28
lclavicle 3.61788e-014 -2.90226e-014
lhumerus 50.1997 -19.7029 58.2079
lradius 50.1931
lwrist -20.8893
lhand -21.0787 -17.4024
lfingers 7.12502
lthumb 5.29835 12.5114
rfemur -43.8441 -2.27018 33.3245
rtibia 48.2656
rfoot -28.9808 0.664639
rtoes 20.1423
lfemur -45.8893 17.5456 -12.5487
ltibia 76.0227
lfoot -7.44975 -7.29082
ltoes 16.5159
2543
root -24.3166 21.5921 -7.90397 211.486 78.0786 -165.068
lowerback 30.2433 -0.154726 1.84413
upperback 5.86272 1.32472 2.55152
thorax -10.058 0.857167 1.28328
lowerneck -11.6581 -8.17831 -7.93447
upperneck -20.2696 -7.90021 11.9245
head -3.31309 -3.32724 4.9093
rclavicle 3.18055e-014 1.86858e-014
rhumerus 16.2894 19.9134 -70.4626
rradius 71.2316
rwrist 13.7646
rhand -17.3511 -364.346
rfingers 7.12502
rthumb 8.89658 -394.138
lclavicle 3.18055e-014 1.86858e-014
lhumerus 50.6252 -20.2751 56.4547
lradius 50.2135
lwrist -19.795
lhand -21.2022 -17.4576
lfingers 7.12502
lthumb 5.17915 12.4591
rfemur -42.3963 -3.57118 34.0903
rtibia 46.3309
rfoot -27.4768 -5.8679
rtoes 1.09283
lfemur -46.6998 16.7628 -13.236
ltibia 78.8846
lfoot -11.0202 -4.04828
ltoes 1.98476
2544
root -24.3069 21.7201 -7.86829 210.974 77.6765 -166.135
lowerback 29.7982 -0.306929 1.57666
upperback 5.77145 1.01187 2.49092
thorax -9.94135 0.7133 1.48822
lowerneck -11.9708 -7.89752 -8.22732
upperneck -19.8165 -7.52422 11.7268
head -3.16425 -3.10559 4.8842
rclavicle -2.50469e-014 2.96189e-014
rhumerus 16.9666 19.7565 -70.4775
rradius 72.4755
rwrist 13.666
rhand -15.3465 -361.424
rfingers 7.12502
rthumb 10.8306 -391.125
lclavicle -2.50469e-014 2.96189e-014
lhumerus 50.2956 -20.172 57.4141
lradius 49.5363
lwrist -20.9333
lhand -20.6594 -18.7961
lfingers 7.12502
lthumb 5.70319 11.1071
rfemur -42.3293 -3.11601 33.4284
rtibia 45.3485
rfoot -27.8063 0.995246
rtoes 21.5541
lfemur -49.3584 17.5411 -12.8456
ltibia 81.545
lfoot -10.5474 -7.10382
ltoes 15.2105
2545
root -24.2983 21.7589 -7.87965 210.108 77.3418 -167.119
lowerback 29.7551 -0.496237 1.61842
upperback 5.72072 0.792782 2.5725
thorax -9.97503 0.611668 1.6385
lowerneck -11.5704 -7.73816 -8.50931
upperneck -20.0511 -7.33819 11.4294
head -3.32054 -2.99381 4.86527
rclavicle 2.68359e-014 6.95746e-015
rhumerus 17.4164 19.44 -70.0154
rradius 73.9366
rwrist 14.317
rhand -12.0985 -358.325
rfingers 7.12502
rthumb 13.9621 -387.836
lclavicle 2.68359e-014 6.95746e-015
lhumerus 49.8168 -20.1698 58.7975
lradius 48.8191
lwrist -22.3441
lhand -20.9398 -18.9827
lfingers 7.12502
lthumb 5.43243 10.9277
rfemur -41.7426 -4.28819 33.9743
rtibia 43.7195
rfoot -27.8007 -0.158389
rtoes 19.4916
lfemur -51.678 18.0891 -13.0917
ltibia 84.44
lfoot -11.6525 -7.45986
ltoes 12.6764
2546
root -24.2687 21.9102 -7.91372 206.008 77.2153 -170.952
lowerback 29.9578 -0.6953 1.20865
upperback 5.80157 0.418392 2.46218
thorax -9.97466 0.454142 1.89035
lowerneck -12.0164 -8.56814 -11.6534
upperneck -19.1261 -7.91108 14.6533
head -2.56808 -3.18396 6.31989
rclavicle 7.95139e-016 2.82274e-014
rhumerus 17.8013 19.1067 -69.6479
rradius 75.5316
rwrist 14.3893
rhand -15.5845 -351.252
rfingers 7.12502
rthumb 10.6009 -380.964
lclavicle 7.95139e-016 2.82274e-014
lhumerus 49.6558 -20.3926 58.3935
lradius 48.6909
lwrist -22.2078
lhand -21.8592 -18.1119
lfingers 7.12502
lthumb 4.54469 11.8193
rfemur -40.6373 -4.79222 32.4164
rtibia 42.8348
rfoot -26.0916 1.31996
rtoes 17.7403
lfemur -52.5341 17.5238 -14.2379
ltibia 86.4987
lfoot -13.179 -7.01918
ltoes 9.82771
2547
root -24.2544 21.969 -7.89425 210.496 76.7221 -166.195
lowerback 30.7364 -0.706463 2.51653
upperback 5.62948 0.817622 2.23827
thorax -10.5488 0.59273 0.731059
lowerneck -10.912 -8.42996 -7.77781
upperneck -20.8622 -8.20517 12.4601
head -3.54782 -3.52966 5.08586
rclavicle 8.94531e-015 1.0138e-014
rhumerus 17.7114 17.406 -70.5034
rradius 76.6774
rwrist 15.1825
rhand -16.7255 -353.237
rfingers 7.12502
rthumb 9.50017 -383.003
lclavicle 8.94531e-015 1.0138e-014
lhumerus 50.2049 -21.4175 56.8109
lradius 48.7357
lwrist -21.6633
lhand -21.8918 -18.7451
lfingers 7.12502
lthumb 4.51321 11.1868
rfemur -39.5847 -4.96839 33.9489
rtibia 41.0025
rfoot -23.8308 -2.97053
rtoes -1.34654
lfemur -54.3943 17.4619 -12.84
ltibia 89.1542
lfoot -14.0432 -7.13272
ltoes 5.86484
2548
root -24.2391 22.0495 -7.82795 213.008 77.4466 -163.908
lowerback 30.8673 -0.01112 1.06416
upperback 5.50783 1.23787 2.33048
thorax -10.7815 0.824212 1.51816
lowerneck -10.536 -8.1229 -6.15733
upperneck -21.6247 -7.97316 11.3888
head -4.00394 -3.48659 4.538
rclavicle 1.5704e-014 5.76476e-015
rhumerus 18.5847 16.8328 -70.7956
rradius 77.7872
rwrist 15.0826
rhand -16.9099 -351.748
rfingers 7.12502
rthumb 9.32224 -381.522
lclavicle 1.5704e-014 5.76476e-015
lhumerus 49.8622 -21.4374 56.6534
lradius 48.4808
lwrist -21.8468
lhand -21.9127 -19.4787
lfingers 7.12502
lthumb 4.49309 10.4536
rfemur -38.708 -3.65106 34.038
rtibia 39.2169
rfoot -24.5806 1.60271
rtoes 19.2905
lfemur -56.2627 18.5173 -12.482
ltibia 91.4035
lfoot -14.9284 -7.58139
ltoes 3.52393
2549
root -24.222 22.1385 -7.83223 213.186 77.5427 -163.625
lowerback 30.9897 -0.051298 1.16091
upperback 5.57121 1.20015 2.14124
thorax -10.761 0.802202 1.25921
lowerneck -10.9103 -8.15446 -7.9029
upperneck -20.5526 -7.82785 12.6269
head -3.47246 -3.34406 5.15972
rclavicle -2.60408e-014 -3.89618e-014
rhumerus 19.7163 16.0613 -71.0207
rradius 78.9054
rwrist 14.7142
rhand -17.4743 -351.193
rfingers 7.12502
rthumb 8.77765 -380.99
lclavicle -2.60408e-014 -3.89618e-014
lhumerus 50.0376 -22.0893 56.3659
lradius 48.0509
lwrist -21.6671
lhand -23.0564 -18.1423
lfingers 7.12502
lthumb 3.3886 11.8105
rfemur -37.4831 -4.23867 34.2711
rtibia 36.9683
rfoot -23.0953 1.36851
rtoes 16.05
lfemur -57.9195 18.4904 -12.2541
ltibia 93.6767
lfoot -15.141 -9.43292
ltoes 8.01518
